<?xml version="1.0" encoding="iso-8859-1"?>
<!-- Generator: Adobe Illustrator 19.0.0, SVG Export Plug-In . SVG Version: 6.00 Build 0)  -->
<svg version="1.1" id="Capa_1" xmlns="http://www.w3.org/2000/svg" xmlns:xlink="http://www.w3.org/1999/xlink" x="0px" y="0px"
	 viewBox="0 0 342.832 342.832" style="enable-background:new 0 0 342.832 342.832;" xml:space="preserve">
<g>
	<g>
		<g>
			<path d="M276.326,232.386c-1.459-1.574-3.499-2.481-5.645-2.509h-52.245v-125.91c0-4.702-1.045-9.927-5.224-9.927H129.62
				c-5.301,0.621-9.557,4.664-10.449,9.927v125.91h-47.02c-4.328,0.057-7.79,3.611-7.733,7.939c0.028,2.146,0.935,4.186,2.509,5.645
				l99.265,97.176c2.827,2.885,7.458,2.933,10.343,0.106c0.036-0.035,0.071-0.07,0.106-0.106l99.265-97.176
				C279.08,240.519,279.268,235.561,276.326,232.386z"/>
			<path d="M129.62,78.367h83.592c4.328,0,7.837-3.509,7.837-7.837s-3.509-7.837-7.837-7.837H129.62
				c-4.328,0-7.837,3.509-7.837,7.837S125.292,78.367,129.62,78.367z"/>
			<path d="M129.62,47.02h83.592c4.328,0,7.837-3.509,7.837-7.837s-3.509-7.837-7.837-7.837H129.62
				c-4.328,0-7.837,3.509-7.837,7.837S125.292,47.02,129.62,47.02z"/>
			<path d="M129.62,15.673h83.592c4.328,0,7.837-3.509,7.837-7.837c0-4.328-3.509-7.837-7.837-7.837H129.62
				c-4.328,0-7.837,3.509-7.837,7.837C121.783,12.165,125.292,15.673,129.62,15.673z"/>
		</g>
	</g>
</g>
<g>
</g>
<g>
</g>
<g>
</g>
<g>
</g>
<g>
</g>
<g>
</g>
<g>
</g>
<g>
</g>
<g>
</g>
<g>
</g>
<g>
</g>
<g>
</g>
<g>
</g>
<g>
</g>
<g>
</g>
</svg>
