<svg id="Layer_1" enable-background="new 0 0 511.998 511.998" height="512" viewBox="0 0 511.998 511.998" width="512" xmlns="http://www.w3.org/2000/svg"><g><path d="m457.922 150.376c-9.546-16.338-19.751-31.784-28.735-43.495-13.243-17.264-21.065-23.383-29.891-23.383s-16.647 6.119-29.891 23.383c-7.181 9.361-15.142 21.113-22.924 33.795 29.543 54.007 66.018 131.995 66.018 187.822 0 6.529-.311 12.985-.888 19.366 47.805-6.07 84.888-46.998 84.888-96.425 0-30.493-24.169-76.408-38.577-101.063z"/><path d="m247.775 41.768c-29.564-38.54-40.679-41.768-48.776-41.768s-19.212 3.228-48.777 41.768c-18.026 23.499-38.553 54.579-57.799 87.517-23.129 39.581-76.924 138.227-76.924 199.214 0 101.183 82.318 183.5 183.5 183.5s183.5-82.317 183.5-183.5c0-60.987-53.795-159.633-76.924-199.214-19.246-32.938-39.773-64.018-57.8-87.517zm-116.276 245.23c0-8.262 6.739-15 15-15 8.262 0 15 6.739 15 15 0 8.262-6.738 15-15 15-8.261.001-15-6.738-15-15zm46.807 107.341c-2.778 4.812-7.82 7.503-13.004 7.503-2.545 0-5.124-.648-7.486-2.013-7.174-4.142-9.632-13.315-5.49-20.49l67.366-116.682c4.142-7.174 13.315-9.635 20.49-5.49 7.174 4.142 9.632 13.315 5.49 20.49zm68.194-7.341c-8.262 0-15-6.739-15-15 0-8.262 6.739-15 15-15 8.262 0 15 6.738 15 15s-6.739 15-15 15z"/></g></svg>